<svg width="19" height="14" viewBox="0 0 19 14" fill="none" xmlns="http://www.w3.org/2000/svg">
<path d="M5.66667 13.6667C4.97222 13.6667 4.38194 13.4236 3.89583 12.9375C3.40972 12.4514 3.16667 11.8611 3.16667 11.1667H1.08333L1.45833 9.5H3.8125C4.04861 9.23611 4.32639 9.03125 4.64583 8.88542C4.96528 8.73958 5.30556 8.66667 5.66667 8.66667C6.02778 8.66667 6.36806 8.73958 6.6875 8.88542C7.00694 9.03125 7.28472 9.23611 7.52083 9.5H11L12.75 2H3.625L3.70833 1.64583C3.79167 1.25695 3.98264 0.940973 4.28125 0.697917C4.57986 0.454862 4.93056 0.333334 5.33333 0.333334H14.8333L14.0625 3.66667H16.5L19 7L18.1667 11.1667H16.5C16.5 11.8611 16.2569 12.4514 15.7708 12.9375C15.2847 13.4236 14.6944 13.6667 14 13.6667C13.3056 13.6667 12.7153 13.4236 12.2292 12.9375C11.7431 12.4514 11.5 11.8611 11.5 11.1667H8.16667C8.16667 11.8611 7.92361 12.4514 7.4375 12.9375C6.95139 13.4236 6.36111 13.6667 5.66667 13.6667ZM13.1042 7.83333H17.125L17.2083 7.39583L15.6667 5.33333H13.6875L13.1042 7.83333ZM12.7083 2.14583L12.75 2L11 9.5L11.0417 9.35417L11.75 6.3125L12.7083 2.14583ZM0.25 8.10417L0.666667 6.4375H5.25L4.83333 8.10417H0.25ZM1.91667 5.0625L2.33333 3.39583H7.75L7.33333 5.0625H1.91667ZM5.66667 12C5.90278 12 6.10069 11.9201 6.26042 11.7604C6.42014 11.6007 6.5 11.4028 6.5 11.1667C6.5 10.9306 6.42014 10.7326 6.26042 10.5729C6.10069 10.4132 5.90278 10.3333 5.66667 10.3333C5.43056 10.3333 5.23264 10.4132 5.07292 10.5729C4.91319 10.7326 4.83333 10.9306 4.83333 11.1667C4.83333 11.4028 4.91319 11.6007 5.07292 11.7604C5.23264 11.9201 5.43056 12 5.66667 12ZM14 12C14.2361 12 14.434 11.9201 14.5938 11.7604C14.7535 11.6007 14.8333 11.4028 14.8333 11.1667C14.8333 10.9306 14.7535 10.7326 14.5938 10.5729C14.434 10.4132 14.2361 10.3333 14 10.3333C13.7639 10.3333 13.566 10.4132 13.4062 10.5729C13.2465 10.7326 13.1667 10.9306 13.1667 11.1667C13.1667 11.4028 13.2465 11.6007 13.4062 11.7604C13.566 11.9201 13.7639 12 14 12Z" fill="#7B1202"/>
</svg>
