<svg width="44" height="44" viewBox="0 0 44 44" fill="none" xmlns="http://www.w3.org/2000/svg">
<path d="M20.9166 16.75V10.5H14.6666V6.33337H20.9166V0.083374H25.0833V6.33337H31.3333V10.5H25.0833V16.75H20.9166ZM12.5833 43.8334C11.4375 43.8334 10.4566 43.4254 9.6406 42.6094C8.82463 41.7934 8.41665 40.8125 8.41665 39.6667C8.41665 38.5209 8.82463 37.54 9.6406 36.724C10.4566 35.908 11.4375 35.5 12.5833 35.5C13.7291 35.5 14.71 35.908 15.526 36.724C16.342 37.54 16.75 38.5209 16.75 39.6667C16.75 40.8125 16.342 41.7934 15.526 42.6094C14.71 43.4254 13.7291 43.8334 12.5833 43.8334ZM33.4166 43.8334C32.2708 43.8334 31.2899 43.4254 30.4739 42.6094C29.658 41.7934 29.25 40.8125 29.25 39.6667C29.25 38.5209 29.658 37.54 30.4739 36.724C31.2899 35.908 32.2708 35.5 33.4166 35.5C34.5625 35.5 35.5434 35.908 36.3594 36.724C37.1753 37.54 37.5833 38.5209 37.5833 39.6667C37.5833 40.8125 37.1753 41.7934 36.3594 42.6094C35.5434 43.4254 34.5625 43.8334 33.4166 43.8334ZM0.083313 6.33337V2.16671H6.90623L15.7604 20.9167H30.3437L38.4687 6.33337H43.2083L34.0416 22.8959C33.6597 23.5903 33.1475 24.1285 32.5052 24.5105C31.8628 24.8924 31.1597 25.0834 30.3958 25.0834H14.875L12.5833 29.25H37.5833V33.4167H12.5833C11.0208 33.4167 9.83158 32.7396 9.0156 31.3855C8.19963 30.0313 8.17359 28.6598 8.93748 27.2709L11.75 22.1667L4.24998 6.33337H0.083313Z" fill="#D55946"/>
</svg>
