<svg width="37" height="44" viewBox="0 0 37 44" fill="none" xmlns="http://www.w3.org/2000/svg">
<path d="M16.8229 43.8334C15.8507 43.8334 14.9392 43.625 14.0885 43.2084C13.2378 42.7917 12.5174 42.2014 11.9271 41.4375L0.572906 27.0105L1.56249 25.9688C2.25693 25.2396 3.09027 24.8056 4.06249 24.6667C5.03471 24.5278 5.93749 24.7188 6.77082 25.2396L10.625 27.5834V10.5C10.625 9.90976 10.8246 9.41497 11.2239 9.01567C11.6233 8.61636 12.118 8.41671 12.7083 8.41671C13.2986 8.41671 13.8021 8.61636 14.2187 9.01567C14.6354 9.41497 14.8437 9.90976 14.8437 10.5V35.0834L9.79166 31.9584L15.2083 38.8855C15.4167 39.1285 15.6597 39.3195 15.9375 39.4584C16.2153 39.5973 16.5104 39.6667 16.8229 39.6667H28.3333C29.4792 39.6667 30.4601 39.2587 31.276 38.4427C32.092 37.6268 32.5 36.6459 32.5 35.5V27.1667C32.5 26.5764 32.3003 26.0816 31.901 25.6823C31.5017 25.283 31.0069 25.0834 30.4167 25.0834H19.0104V20.9167H30.4167C32.1528 20.9167 33.6285 21.5243 34.8437 22.7396C36.059 23.9549 36.6667 25.4306 36.6667 27.1667V35.5C36.6667 37.7917 35.8507 39.7535 34.2187 41.3855C32.5868 43.0174 30.625 43.8334 28.3333 43.8334H16.8229ZM3.69791 15.7084C3.24652 14.9445 2.8993 14.1198 2.65624 13.2344C2.41318 12.349 2.29166 11.4375 2.29166 10.5C2.29166 7.6181 3.30728 5.1615 5.33853 3.13025C7.36978 1.099 9.82638 0.083374 12.7083 0.083374C15.5903 0.083374 18.0469 1.099 20.0781 3.13025C22.1094 5.1615 23.125 7.6181 23.125 10.5C23.125 11.4375 23.0035 12.349 22.7604 13.2344C22.5174 14.1198 22.1701 14.9445 21.7187 15.7084L18.125 13.625C18.4028 13.1389 18.6111 12.6441 18.75 12.1407C18.8889 11.6372 18.9583 11.0903 18.9583 10.5C18.9583 8.76393 18.3507 7.28824 17.1354 6.07296C15.9201 4.85768 14.4444 4.25004 12.7083 4.25004C10.9722 4.25004 9.49652 4.85768 8.28124 6.07296C7.06596 7.28824 6.45832 8.76393 6.45832 10.5C6.45832 11.0903 6.52777 11.6372 6.66666 12.1407C6.80555 12.6441 7.01388 13.1389 7.29166 13.625L3.69791 15.7084Z" fill="#D55946"/>
</svg>
