<svg width="34" height="42" viewBox="0 0 34 42" fill="none" xmlns="http://www.w3.org/2000/svg">
<path d="M8.66671 33.5H25.3334V29.3333H8.66671V33.5ZM8.66671 25.1666H25.3334V21H8.66671V25.1666ZM4.50004 41.8333C3.35421 41.8333 2.3733 41.4253 1.55733 40.6093C0.74136 39.7934 0.333374 38.8125 0.333374 37.6666V4.33329C0.333374 3.18746 0.74136 2.20656 1.55733 1.39058C2.3733 0.574612 3.35421 0.166626 4.50004 0.166626H21.1667L33.6667 12.6666V37.6666C33.6667 38.8125 33.2587 39.7934 32.4427 40.6093C31.6268 41.4253 30.6459 41.8333 29.5 41.8333H4.50004ZM19.0834 14.75V4.33329H4.50004V37.6666H29.5V14.75H19.0834Z" fill="#D55946"/>
</svg>
