<svg width="79" height="95" viewBox="0 0 79 95" fill="none" xmlns="http://www.w3.org/2000/svg">
<g opacity="0.4" clip-path="url(#clip0_201_13)">
<path d="M-16.0721 64.6772C-21.6908 61.5747 -27.1418 58.1778 -32.4025 54.5007C-33.5901 53.442 -32.8463 51.8632 -33.4362 50.6475C-33.3093 49.29 -34.2497 48.2172 -33.9831 46.8223C-30.9716 42.6374 -27.7393 39.2935 -24.7254 35.1269C-21.7212 31.1264 -18.6607 27.3171 -15.8129 22.7282C-9.7537 14.7168 -4.12964 5.05814 2.19846 -1.95662C2.66481 -2.6647 2.35752 -3.16358 2.50269 -3.78623L3.69621 -5.85347C6.25286 -8.76595 9.23957 -10.0689 12.2805 -11.1718C13.0091 -11.0831 13.7484 -11.1724 14.435 -11.432C15.9029 -11.0975 17.2039 -11.3832 18.8463 -10.3904L19.2228 -10.173C19.314 -10.3188 19.5622 -10.2281 19.708 -10.1438C21.4482 -9.14981 22.9855 -7.83677 24.2394 -6.27349C24.2917 -6.23301 24.3507 -6.20198 24.4137 -6.1818C24.509 -6.14066 24.6081 -6.0993 24.6145 -6.05696C24.7154 -5.44303 25.7508 -4.23402 26.1116 -3.43934C26.4339 -2.72242 26.7229 -1.77076 27.1218 -0.849818C27.0879 0.0942233 27.1288 1.03948 27.244 1.97708C26.7341 4.51105 25.833 6.95021 24.573 9.20707C24.2949 9.83182 23.8218 10.3497 23.2247 10.683C22.9538 11.4067 21.9787 10.7891 22.2013 11.5963C15.6408 28.7116 6.72693 46.4605 -0.374741 63.7207C-1.38419 65.0876 -2.72994 65.2016 -3.91106 65.9396C-4.97527 66.7404 -6.12454 67.4215 -7.33801 67.9706C-9.16055 67.4908 -10.9875 67.0016 -12.797 66.5731C-13.8876 65.9381 -14.9793 65.3061 -16.0721 64.6772ZM2.58315 25.5821C-1.85721 33.7096 -5.18395 41.5374 -9.55667 49.6473C-9.27379 50.5786 -9.51091 51.6493 -8.35695 52.3453C-5.76602 53.3192 -4.0372 51.0759 -2.23139 49.115L1.1327 43.2882C2.48398 38.9009 5.31265 34.1184 7.60061 29.4801C7.81155 29.5543 8.00685 29.6671 8.17658 29.8127C8.56848 30.1014 8.96068 30.3914 9.13527 29.8621C12.6079 22.6821 15.8438 15.5669 18.6782 8.55916C15.3021 5.91539 10.802 4.0118 7.10509 2.12643L5.80198 4.38348C3.86424 7.03514 1.95463 9.78933 0.0589461 12.5933C-1.00105 13.5837 -1.83867 15.3971 -2.89309 16.4037C-3.25579 17.12 -3.72088 17.7796 -4.27373 18.3619L-4.92506 19.4901C-5.64764 20.0542 -4.66275 20.1614 -4.79608 20.5676C-3.92096 21.4579 -3.68764 19.9624 -3.0959 19.7951C-2.5783 19.3557 -1.86883 19.6323 -1.23672 19.6133C-0.934097 19.8441 -0.696509 20.1494 -0.547145 20.4995C-0.397782 20.8495 -0.341741 21.2323 -0.384523 21.6105C0.498412 21.7997 1.54769 21.2833 2.19597 22.3482C2.8934 22.9086 2.31416 24.4584 1.45929 24.9303C1.53712 25.0135 1.6329 25.0777 1.73935 25.1182C1.84581 25.1587 1.96014 25.1743 2.07356 25.1639C2.21036 25.1567 2.34707 25.1788 2.47461 25.2288C2.56634 25.2847 2.61419 25.3857 2.58315 25.5821ZM5.10806 38.5664C5.408 38.4886 5.77406 37.5847 5.67968 37.1433C5.56809 37.5978 4.74034 38.246 5.11279 38.5702L5.10806 38.5664ZM7.40049 -4.4689C10.6198 -3.12421 13.7023 -2.29012 16.9948 -0.683873L21.3176 1.81192C21.7774 2.37502 22.3534 2.91196 22.8713 3.46199C23.5169 2.07056 23.2089 0.935298 23.2918 -0.304733C22.4527 -1.82801 22.2208 -3.51273 20.35 -4.75954C19.4427 -3.01617 18.454 -1.55988 16.8932 -2.24373C15.3047 -3.24916 17.5004 -5.26668 17.7485 -6.76359C17.6547 -6.81772 17.5588 -6.87315 17.4657 -6.93186C17.0538 -7.18256 16.6429 -7.43168 16.3246 -7.33568C16.2024 -7.39037 16.0846 -7.43552 16.0287 -7.25447C15.89 -6.80347 15.5821 -6.42371 15.1695 -6.19482C14.7569 -5.96593 14.2717 -5.9057 13.8157 -6.0268C12.8648 -6.30293 13.0652 -6.88377 12.5296 -7.27241C10.6461 -6.70065 8.90122 -5.74525 7.40494 -4.46633L7.40049 -4.4689ZM12.5713 79.4652C12.4291 79.3386 12.263 79.2418 12.0828 79.1805C11.9026 79.1193 11.7119 79.0947 11.5221 79.1085C11.3328 79.122 11.1428 79.0978 10.963 79.0371C10.7832 78.9764 10.6173 78.8805 10.475 78.755C9.39233 77.6654 8.13097 76.7694 6.74571 76.1058C6.65303 75.2833 6.03218 74.6024 5.81433 73.8128C5.59647 73.0232 5.8065 72.1215 5.47478 71.3625C5.71737 70.4508 5.39238 69.6887 5.43264 68.8318C5.47291 67.975 4.83646 67.2969 5.39022 66.3C5.7237 65.6495 6.15282 65.0528 6.66332 64.5297C6.74278 64.4436 7.30877 64.2435 7.36193 64.1789C7.60076 63.9199 7.66655 63.5035 7.9037 63.2406C8.80652 62.3724 9.61429 61.4105 10.3134 60.3712C10.8301 60.3252 11.0789 59.2773 11.5538 59.0821C11.8734 58.2982 12.4191 58.3602 12.7186 57.4993C13.2398 57.4559 13.4845 56.4066 13.959 56.2102C17.5787 51.7349 21.2144 47.3184 24.866 42.9607C28.0306 38.7651 31.3248 35.0391 34.5289 30.9983C37.7503 27.2025 40.9183 23.2192 44.3231 20.1128C44.9084 19.2709 44.552 18.6732 44.5481 17.9873C44.776 17.2168 45.1145 16.4835 45.5531 15.8102C48.6292 11.6766 52.6405 11.0308 56.7475 10.7468C58.2883 11.0238 59.7934 11.4721 61.2346 12.0833C64.9871 14.2557 65.9249 17.1804 67.1744 20.0242C67.2915 21.5295 67.5007 23.0096 67.5852 24.5199C67.4146 24.7776 67.2478 25.0356 67.4469 25.1942C66.7586 27.7268 65.0371 31.5421 62.8893 33.0882C61.4562 36.5432 58.612 40.3781 57.4859 43.7514C55.9949 47.2226 54.5092 50.6929 52.97 54.1769C49.723 61.1895 47.2271 68.0027 44.2363 74.9479C43.89 77.9588 43.1903 80.9185 42.1517 83.7658C41.6286 84.9778 40.7334 84.7994 40.0971 85.5869C39.4929 86.2898 38.7338 86.424 38.152 87.2203C37.4141 87.4312 36.8857 88.422 36.1273 88.5567C35.4803 89.1118 34.9102 89.9377 34.1806 90.1891C31.7399 89.0897 29.1776 88.2828 26.5473 87.7853C24.0829 86.6283 21.2559 85.2641 18.6245 83.7449C16.4588 82.5437 14.4308 81.1096 12.5765 79.4682L12.5713 79.4652ZM19.2411 75.294C20.2181 76.0386 20.1544 77.0615 19.2538 78.3087C19.6373 78.6204 19.8762 78.3873 20.1149 78.156C20.3795 77.897 20.6449 77.6384 21.1112 78.1299C21.3151 78.2054 21.4952 78.334 21.6327 78.5024C21.7703 78.6708 21.8604 78.8729 21.8937 79.0877C21.9288 79.3157 22.0272 79.5292 22.1778 79.7038C22.3284 79.8785 22.525 80.0073 22.7453 80.0755L27.4447 82.7887C29.4335 83.1507 31.3858 83.6908 33.278 84.4023C34.5093 84.2456 35.6459 83.66 36.4882 82.7483C36.6574 81.8021 36.6827 80.8939 36.851 79.9493C39.1926 73.2315 42.6537 66.2126 45.773 59.287C45.7751 57.7007 46.5698 55.8962 47.2501 54.125L49.8529 49.6169C53.0738 42.5585 56.3997 35.4693 59.5842 28.4207C56.1383 27.064 52.8211 25.4009 49.6725 23.4513C44.2995 29.4924 38.7967 35.0399 33.8386 42.6273C33.1156 43.1029 32.6652 44.5703 31.9433 45.0406C32.7672 46.2515 34.3089 47.2676 32.8675 49.0836C32.3741 49.6133 31.7117 49.5147 31.0887 49.5608L29.9606 48.9095C29.8907 48.8892 29.8263 48.8534 29.772 48.8049C29.7178 48.7564 29.6751 48.6964 29.6471 48.6293C29.5455 48.4357 29.5347 48.2945 29.2911 48.7681C28.8626 48.5514 28.7506 49.5186 28.4511 49.7882C28.0555 50.0124 27.7567 50.375 27.6123 50.8062C27.0035 51.444 26.4435 52.1266 25.9372 52.8484C24.8716 54.6046 23.6138 55.6386 22.4728 57.1131C20.2533 60.0982 18.0261 63.0501 15.8093 66.0476C14.7992 68.067 13.0497 70.2826 12.5252 72.1706C12.7883 72.8572 13.1946 73.48 13.717 73.9975C14.2394 74.515 14.8659 74.9154 15.5549 75.172C16.8249 75.7892 17.516 74.2364 18.8254 74.9914C18.975 75.0793 19.1156 75.1818 19.2451 75.2973L19.2411 75.294ZM48.838 17.9538C51.1763 18.329 53.3683 19.3339 55.1788 20.8606C56.0298 21.3768 56.9269 21.8818 57.8228 22.3871C59.6137 23.3314 61.3317 24.4079 62.9626 25.6076C63.337 24.5161 63.471 23.3565 63.3553 22.2084C63.2396 21.0602 62.877 19.9507 62.2924 18.9558C61.5077 20.8166 59.7536 21.3974 58.5463 19.8004C58.4146 18.7242 59.0694 17.4353 59.9362 16.0903C59.2061 15.6065 58.4093 15.2318 57.5711 14.9778C57.0698 15.7997 57.4609 16.3837 56.7549 17.2629C56.1178 17.4538 55.5499 17.9047 54.7083 17.3345C53.7029 16.7541 54.2792 15.7542 53.7764 15.0422C52.0468 15.6818 50.2733 16.1809 48.8424 17.9564L48.838 17.9538ZM22.2539 75.2812C22.6339 74.5232 23.222 74.5393 23.6867 74.1022C24.1619 74.2981 24.5647 74.2122 25.1114 74.6746C25.5811 74.6482 25.8256 73.7812 26.2431 73.5738C26.764 73.3417 27.3252 73.2668 27.8338 72.989L29.3378 73.8573C29.9675 75.0216 28.77 76.903 27.5725 77.3497C26.9098 77.0505 26.4245 77.4133 25.6628 76.7493C25.1073 77.0378 24.653 77.72 24.043 77.8193C23.6965 77.5121 23.4708 77.6606 23.184 77.5714C22.2027 76.9939 22.1933 76.1491 22.2591 75.2842L22.2539 75.2812ZM31.7828 81.7848C31.7452 81.3222 31.6752 80.8627 31.5735 80.4098C32.3101 78.6046 33.8717 78.0327 35.0509 79.161C35.1318 79.2996 35.2199 79.4339 35.3147 79.5634C35.4459 80.0732 35.4799 80.6031 35.4149 81.1254C34.7252 82.7206 33.6592 82.9118 32.3376 82.1488C32.1479 82.0381 31.9642 81.9175 31.7872 81.7874L31.7828 81.7848ZM15.2358 69.2201C16.0511 67.9197 17.1272 67.5854 18.5743 68.6432C18.7489 69.1738 18.7505 69.7462 18.5789 70.2778C18.4073 70.8095 18.0713 71.2729 17.6194 71.6014C17.1057 71.6953 16.5754 71.6049 16.1219 71.3459C15.7526 71.1471 15.463 70.8273 15.3016 70.4402C15.1403 70.0531 15.117 69.6223 15.2358 69.2201ZM22.7543 67.047C23.6261 65.1577 24.9109 64.8137 26.6086 66.0148C27.0306 66.6434 26.8863 67.4243 26.8677 68.1697C26.7271 68.4299 26.5349 68.6586 26.3028 68.842C26.0707 69.0253 25.8036 69.1593 25.5179 69.2359C25.2322 69.3124 24.9339 69.3298 24.6413 69.2871C24.3486 69.2444 24.0677 69.1424 23.8158 68.9874C23.4711 68.8005 23.1876 68.5182 22.9992 68.1743C22.8107 67.8304 22.7254 67.4395 22.7534 67.0484L22.7543 67.047ZM37.7866 70.9632C37.6628 71.4732 38.1207 71.8279 37.9959 72.3363C37.1144 73.7909 36.0282 74.4745 34.677 74.1786C32.1713 72.7201 35.602 68.6581 37.7841 70.9657L37.7866 70.9632ZM21.86 62.5191C21.1746 62.1234 21.3254 61.498 20.979 61.0083C21.4879 59.8743 21.7832 59.5656 22.6271 59.4546C23.0153 59.4106 23.4074 59.4922 23.7458 59.6876C24.0841 59.8829 24.3509 60.1816 24.5069 60.5398C24.5135 60.9983 24.3959 61.45 24.1666 61.8471C23.9374 62.2442 23.605 62.5718 23.2046 62.7954C23.1085 62.7262 22.9989 62.678 22.8828 62.6539C22.7668 62.6298 22.647 62.6304 22.5312 62.6556C22.3276 62.6978 22.1156 62.6659 21.9334 62.5655C21.9071 62.5543 21.8826 62.5401 21.8565 62.525L21.86 62.5191ZM29.2994 66.5632C29.3247 66.0262 29.0311 65.5758 29.1991 65.0012C30.2118 62.5219 34.0119 64.4519 32.2063 66.7373C31.5857 67.4427 30.7829 67.4654 29.8236 66.9116C29.6418 66.8068 29.4661 66.6914 29.2977 66.5662L29.2994 66.5632ZM33.1462 67.28C33.9855 65.4825 35.1936 65.0399 36.8118 66.1399C37.1691 66.8703 37.2236 67.7123 36.9634 68.4827C36.4399 69.3017 35.7007 69.3085 35.0465 69.6323C34.8438 69.5479 34.6466 69.4509 34.456 69.342C34.0603 69.1644 33.7252 68.8748 33.4921 68.5091C33.259 68.1433 33.138 67.7174 33.144 67.2837L33.1462 67.28ZM28.6686 57.6779C28.8989 57.3563 29.2 57.092 29.5487 56.9051C29.8973 56.7183 30.2842 56.614 30.6794 56.6002C31.0747 56.5864 31.4679 56.6635 31.8287 56.8256C32.1895 56.9877 32.5083 57.2304 32.7605 57.5351C33.042 57.9671 33.1672 58.4825 33.1152 58.9955C33.0632 59.5085 32.8372 59.9883 32.4747 60.355C32.1122 60.7218 31.6352 60.9535 31.1228 61.0116C30.6104 61.0696 30.0936 60.9506 29.6583 60.6743C29.1496 60.3883 28.7659 59.923 28.5821 59.3691C28.3984 58.8153 28.4278 58.2129 28.6646 57.6796L28.6686 57.6779ZM37.6475 60.3565C38.4917 58.9905 40.749 59.7828 40.901 61.2328C40.9202 61.4145 40.6088 61.6049 40.8745 61.7136C40.6686 62.2564 40.2649 62.7011 39.7446 62.9584C39.2242 63.2156 38.6257 63.2664 38.0695 63.1005C37.8541 62.9543 37.6711 62.7654 37.5319 62.5454C37.3927 62.3255 37.3002 62.0792 37.2603 61.8219C37.2203 61.5647 37.2337 61.302 37.2997 61.0502C37.3656 60.7984 37.4826 60.5628 37.6435 60.3582L37.6475 60.3565ZM28.7133 53.6942C28.9055 52.9113 29.2466 52.1728 29.7181 51.5189C30.6543 50.9491 32.1233 50.7247 32.8137 51.801C33.0624 52.1916 32.7798 52.719 33.0222 53.1755C32.2302 54.5697 31.3237 55.5366 30.0782 55.2363C29.9523 55.1941 29.8308 55.1399 29.7153 55.0744C29.0614 54.6998 29.1132 54.1374 28.7093 53.6958L28.7133 53.6942ZM41.7083 60.7007C41.9128 60.3981 41.4679 60.0103 41.4715 59.81C41.4709 59.7818 41.6778 59.0093 41.611 59.1334C41.9855 58.6619 42.5241 58.3488 43.1192 58.2569C43.4449 58.3691 43.7439 58.5472 43.9976 58.7801C44.2514 59.0129 44.4544 59.2957 44.5941 59.6105C44.4627 60.9585 43.3705 61.7298 42.1619 61.0321C41.9992 60.9369 41.8463 60.8257 41.7056 60.7002L41.7083 60.7007ZM35.495 54.1051C36.8015 51.6119 40.4635 53.874 39.3624 56.0869C38.7815 57.2478 37.4864 57.2413 36.5131 56.6793C36.2762 56.5781 36.0618 56.4309 35.882 56.2464C35.7022 56.0619 35.5607 55.8437 35.4657 55.6043C35.3707 55.3649 35.324 55.109 35.3283 54.8515C35.3326 54.5939 35.3878 54.3398 35.4908 54.1037L35.495 54.1051ZM41.613 59.1335C41.613 59.1335 41.6129 59.1336 41.6104 59.138L41.613 59.1335ZM41.6841 54.671C42.944 52.4217 46.3992 54.492 44.1777 56.8618C43.641 56.8376 43.1896 57.1297 42.6159 56.9632L42.5616 56.9318C41.5681 56.3602 41.6914 55.4987 41.68 54.6696L41.6841 54.671ZM35.6982 50.7129C34.3714 48.4586 38.8701 46.0681 39.3933 49.0888C38.5637 50.8195 37.5299 51.7904 35.9977 50.9057C35.8972 50.8484 35.796 50.7836 35.694 50.7115L35.6982 50.7129Z" fill="#E6CDBD"/>
</g>
<defs>
<clipPath id="clip0_201_13">
<rect width="41.3773" height="84.4434" fill="white" transform="translate(42.2217 0.96228) rotate(30)"/>
</clipPath>
</defs>
</svg>
