<svg width="71" height="71" viewBox="0 0 71 71" fill="none" xmlns="http://www.w3.org/2000/svg">
<g opacity="0.3">
<path d="M62.1249 11.0938V6.65625C57.7134 6.65625 54.2726 7.88696 51.9065 10.2964C50.5371 11.6918 49.8004 13.2432 49.3757 14.5779C48.249 13.7979 46.9403 13.3125 45.4843 13.3125C39.8854 13.3125 37.7706 17.7673 37.7186 20.8008C37.7186 21.2861 37.7013 21.7975 37.6666 22.3262C36.1759 26.7377 33.2811 23.8169 33.2811 17.75C26.1309 25.3423 33.8358 28.1417 29.4417 32.5359C28.5056 33.4719 26.2695 33.8359 24.8741 32.1199C23.0281 29.9271 26.7809 26.3217 23.2274 23.6262C23.8774 27.6824 20.7487 26.8417 19.6913 25.975C18.3132 24.8483 15.8085 22.3695 19.9686 15.5312C15.7131 17.4727 13.1477 21.4161 13.3124 24.4062C13.7544 32.2499 25.8795 39.0621 20.9827 43.6383C18.5126 45.9524 13.6591 42.8236 15.5311 37.7188C13.1997 38.9061 10.4609 41.7316 11.3363 46.1257C11.943 49.1678 16.3632 56.0234 8.87488 59.9062C8.87488 59.9062 8.90955 59.9149 8.97022 59.9323L8.77954 64.3438C8.92688 64.3524 9.5249 64.3698 10.4869 64.3698C16.7272 64.3698 38.3253 63.4077 51.6205 50.6759C58.5887 44.0023 62.1249 35.162 62.1249 24.4062C62.1249 21.3381 60.7295 15.5312 55.4686 15.5312C54.8186 15.5312 54.2119 15.6179 53.6399 15.7566C53.8912 15.0112 54.3246 14.1619 55.0699 13.3992C56.578 11.8738 58.9441 11.0938 62.1249 11.0938ZM55.4686 19.9688C57.566 19.9688 57.6874 24.3716 57.6874 24.4062C57.6874 33.8966 54.6106 41.6536 48.561 47.4604C38.7413 56.8728 23.2708 59.2042 14.8724 59.7589C16.9178 59.2909 19.3793 58.3375 22.0747 56.5175C35.0579 49.4019 41.8875 32.6226 42.1388 21.4508H42.1561V20.8441C42.1648 20.3241 42.3728 17.75 45.4843 17.75C47.3823 17.75 48.8124 20.4454 48.8124 22.1875H53.2499C53.2499 21.2341 53.4839 19.9688 55.4686 19.9688Z" fill="#E6CDBD"/>
</g>
</svg>
