<svg width="20" height="20" viewBox="0 0 20 20" fill="none" xmlns="http://www.w3.org/2000/svg">
<path d="M6.4165 19.1667C5.91234 19.1667 5.48074 18.9872 5.12171 18.6281C4.76268 18.2691 4.58317 17.8375 4.58317 17.3333C4.58317 16.8292 4.76268 16.3976 5.12171 16.0385C5.48074 15.6795 5.91234 15.5 6.4165 15.5C6.92067 15.5 7.35227 15.6795 7.7113 16.0385C8.07032 16.3976 8.24984 16.8292 8.24984 17.3333C8.24984 17.8375 8.07032 18.2691 7.7113 18.6281C7.35227 18.9872 6.92067 19.1667 6.4165 19.1667ZM15.5832 19.1667C15.079 19.1667 14.6474 18.9872 14.2884 18.6281C13.9294 18.2691 13.7498 17.8375 13.7498 17.3333C13.7498 16.8292 13.9294 16.3976 14.2884 16.0385C14.6474 15.6795 15.079 15.5 15.5832 15.5C16.0873 15.5 16.5189 15.6795 16.878 16.0385C17.237 16.3976 17.4165 16.8292 17.4165 17.3333C17.4165 17.8375 17.237 18.2691 16.878 18.6281C16.5189 18.9872 16.0873 19.1667 15.5832 19.1667ZM5.63734 4.5L7.83734 9.08333H14.254L16.7748 4.5H5.63734ZM4.7665 2.66667H18.2873C18.6387 2.66667 18.9061 2.82327 19.0894 3.13646C19.2728 3.44966 19.2804 3.76667 19.1123 4.0875L15.8582 9.95417C15.6901 10.2597 15.4648 10.4965 15.1821 10.6646C14.8995 10.8326 14.5901 10.9167 14.254 10.9167H7.42484L6.4165 12.75H17.4165V14.5833H6.4165C5.729 14.5833 5.20956 14.2816 4.85817 13.6781C4.50678 13.0747 4.4915 12.475 4.81234 11.8792L6.04984 9.63334L2.74984 2.66667H0.916504V0.833336H3.89567L4.7665 2.66667Z" fill="#E6CDBD"/>
</svg>
