<svg width="124" height="28" viewBox="0 0 124 28" fill="none" xmlns="http://www.w3.org/2000/svg">
<path d="M33.76 21.08C33.0533 21.08 32.3667 21 31.7 20.84C31.0333 20.6667 30.4333 20.4733 29.9 20.26L30.1 16.64L31.62 16.74L31.9 18.88C32.1 18.9467 32.36 19.02 32.68 19.1C33 19.18 33.3333 19.22 33.68 19.22C34.12 19.22 34.5267 19.1533 34.9 19.02C35.2733 18.8867 35.58 18.6867 35.82 18.42C36.06 18.14 36.18 17.7867 36.18 17.36C36.18 17 36.1 16.6933 35.94 16.44C35.78 16.1867 35.5333 15.9533 35.2 15.74C34.88 15.5267 34.4533 15.2933 33.92 15.04C33.4 14.8 32.9 14.56 32.42 14.32C31.9533 14.0667 31.5333 13.7867 31.16 13.48C30.7867 13.1733 30.4867 12.8067 30.26 12.38C30.0467 11.9533 29.94 11.4333 29.94 10.82C29.94 10.0733 30.14 9.42667 30.54 8.88C30.9533 8.33333 31.5 7.91333 32.18 7.62C32.8733 7.31333 33.62 7.16 34.42 7.16C35.0733 7.16 35.7067 7.22 36.32 7.34C36.9333 7.44667 37.4933 7.58 38 7.74L38.28 11.3H36.78L35.86 9.18C35.66 9.14 35.4333 9.10667 35.18 9.08C34.9267 9.04 34.68 9.02 34.44 9.02C33.9867 9.02 33.5933 9.09333 33.26 9.24C32.94 9.37333 32.6933 9.56667 32.52 9.82C32.3467 10.06 32.26 10.3467 32.26 10.68C32.26 11 32.3467 11.28 32.52 11.52C32.6933 11.7467 32.9267 11.9533 33.22 12.14C33.5267 12.3133 33.8467 12.48 34.18 12.64C34.5267 12.7867 34.86 12.9333 35.18 13.08C35.98 13.4533 36.62 13.8333 37.1 14.22C37.58 14.6067 37.9333 15.0333 38.16 15.5C38.3867 15.9533 38.5 16.4733 38.5 17.06C38.5 17.7667 38.3667 18.3733 38.1 18.88C37.8333 19.3733 37.4733 19.7867 37.02 20.12C36.5667 20.4533 36.0533 20.7 35.48 20.86C34.92 21.0067 34.3467 21.08 33.76 21.08ZM40.1925 26.46L39.9125 25.32L40.9725 25.02V12.88L39.8925 13L39.6725 11.68L42.3925 11.24L42.8725 11.78C43.1125 11.6333 43.3992 11.5133 43.7325 11.42C44.0792 11.3133 44.4658 11.26 44.8925 11.26C45.7325 11.26 46.4392 11.46 47.0125 11.86C47.5992 12.26 48.0458 12.82 48.3525 13.54C48.6725 14.26 48.8325 15.0933 48.8325 16.04C48.8325 16.9067 48.7192 17.66 48.4925 18.3C48.2658 18.9267 47.9525 19.4467 47.5525 19.86C47.1525 20.2733 46.6858 20.58 46.1525 20.78C45.6325 20.98 45.0725 21.08 44.4725 21.08C44.2192 21.08 43.9725 21.06 43.7325 21.02C43.4925 20.98 43.2592 20.92 43.0325 20.84V24.8L45.4125 25.3L45.3925 26.46H40.1925ZM44.4525 19.44C44.9325 19.44 45.3392 19.3067 45.6725 19.04C46.0058 18.7733 46.2592 18.3933 46.4325 17.9C46.6192 17.4067 46.7125 16.82 46.7125 16.14C46.7125 15.4867 46.6258 14.92 46.4525 14.44C46.2925 13.9467 46.0525 13.5667 45.7325 13.3C45.4125 13.0333 45.0192 12.9 44.5525 12.9C44.2592 12.9 43.9725 12.9533 43.6925 13.06C43.4125 13.1667 43.1925 13.3067 43.0325 13.48V19.06C43.2058 19.18 43.4192 19.2733 43.6725 19.34C43.9392 19.4067 44.1992 19.44 44.4525 19.44ZM50.3292 21L50.1292 19.86L51.2692 19.58V12.92L50.2292 12.96L50.0292 11.7L52.6892 11.22L53.3092 11.92V19.6L54.4492 19.84V21H50.3292ZM52.2492 10.38C51.9292 10.38 51.6559 10.2667 51.4292 10.04C51.2026 9.8 51.0892 9.52667 51.0892 9.22C51.0892 8.9 51.2026 8.62667 51.4292 8.4C51.6559 8.17333 51.9292 8.06 52.2492 8.06C52.5692 8.06 52.8359 8.17333 53.0492 8.4C53.2759 8.62667 53.3892 8.9 53.3892 9.22C53.3892 9.52667 53.2759 9.8 53.0492 10.04C52.8359 10.2667 52.5692 10.38 52.2492 10.38ZM59.8589 21.08C59.2856 21.08 58.7389 20.98 58.2189 20.78C57.6989 20.5667 57.2389 20.26 56.8389 19.86C56.4389 19.4467 56.1256 18.9533 55.8989 18.38C55.6722 17.7933 55.5589 17.1133 55.5589 16.34C55.5589 15.46 55.6722 14.7 55.8989 14.06C56.1389 13.4067 56.4522 12.88 56.8389 12.48C57.2389 12.0667 57.6989 11.76 58.2189 11.56C58.7389 11.36 59.2789 11.26 59.8389 11.26C60.3322 11.26 60.7589 11.32 61.1189 11.44C61.4922 11.5467 61.7989 11.6867 62.0389 11.86C62.2922 12.0333 62.4922 12.2 62.6389 12.36C62.7989 12.52 62.9122 12.6333 62.9789 12.7L61.0389 14.04L60.0789 12.92L59.7389 12.9C59.4056 12.8867 59.1056 12.9733 58.8389 13.16C58.5722 13.3333 58.3522 13.58 58.1789 13.9C58.0056 14.2067 57.8789 14.5667 57.7989 14.98C57.7189 15.38 57.6789 15.8133 57.6789 16.28C57.6789 16.8133 57.7589 17.3267 57.9189 17.82C58.0789 18.3 58.3456 18.6867 58.7189 18.98C59.0922 19.2733 59.5856 19.42 60.1989 19.42C60.5456 19.42 60.8522 19.3733 61.1189 19.28C61.3989 19.1867 61.6389 19.0733 61.8389 18.94C62.0522 18.8067 62.2322 18.6933 62.3789 18.6L62.8389 20.1C62.4789 20.4333 62.0389 20.68 61.5189 20.84C60.9989 21 60.4456 21.08 59.8589 21.08ZM66.0159 26.48C65.7359 26.48 65.3826 26.4133 64.9559 26.28C64.5426 26.16 64.1559 25.94 63.7959 25.62L64.7359 24.14C64.8559 24.22 65.0293 24.3533 65.2559 24.54C65.4826 24.7267 65.7026 24.82 65.9159 24.82C66.1026 24.82 66.2626 24.76 66.3959 24.64C66.5293 24.5333 66.6493 24.3733 66.7559 24.16C66.8626 23.9467 66.9693 23.7 67.0759 23.42L67.5359 22.14L64.2559 12.74H63.5159L63.3559 11.46L65.9959 11.24L68.6559 19.04L70.9159 12.74H70.0559L69.8959 11.44L72.4959 11.24L72.8759 11.96C72.7826 12.2 72.6493 12.56 72.4759 13.04C72.3159 13.52 72.1159 14.08 71.8759 14.72C71.6493 15.36 71.4093 16.04 71.1559 16.76C70.9159 17.4667 70.6626 18.1867 70.3959 18.92C70.1293 19.6533 69.8759 20.36 69.6359 21.04C69.3959 21.72 69.1759 22.3267 68.9759 22.86C68.7893 23.4067 68.6293 23.84 68.4959 24.16C68.2559 24.7467 67.9959 25.2067 67.7159 25.54C67.4493 25.8867 67.1693 26.1267 66.8759 26.26C66.5826 26.4067 66.2959 26.48 66.0159 26.48ZM80.6244 21.08C79.6644 21.08 78.7577 20.9333 77.9044 20.64C77.0644 20.3467 76.3177 19.9133 75.6644 19.34C75.0244 18.7667 74.5177 18.0533 74.1444 17.2C73.7844 16.3467 73.6044 15.36 73.6044 14.24C73.6044 12.8 73.9044 11.5533 74.5044 10.5C75.1044 9.43333 75.9244 8.61333 76.9644 8.04C78.0044 7.45333 79.1977 7.16 80.5444 7.16C81.011 7.16 81.451 7.18667 81.8644 7.24C82.291 7.29333 82.671 7.36 83.0044 7.44C83.351 7.50667 83.611 7.56667 83.7844 7.62L84.1044 11.42H82.6044L81.7444 9.1C81.5977 9.08667 81.431 9.07333 81.2444 9.06C81.071 9.04667 80.8177 9.04 80.4844 9.04C79.6044 9.04 78.8177 9.26 78.1244 9.7C77.4444 10.14 76.9044 10.7467 76.5044 11.52C76.1177 12.2933 75.9244 13.1933 75.9244 14.22C75.9244 15.2067 76.1244 16.08 76.5244 16.84C76.9377 17.6 77.531 18.1933 78.3044 18.62C79.0777 19.0467 80.0044 19.26 81.0844 19.26C81.271 19.26 81.4444 19.2533 81.6044 19.24C81.7644 19.2267 81.9044 19.2067 82.0244 19.18V16.36L79.8244 16.08L80.1844 14.58H84.2444V20.76C83.9777 20.8133 83.6444 20.8667 83.2444 20.92C82.8577 20.9733 82.4377 21.0133 81.9844 21.04C81.531 21.0667 81.0777 21.08 80.6244 21.08ZM86.2086 21L85.9486 19.84L87.1286 19.54V12.9L86.0886 12.94L85.8886 11.72L88.4086 11.24L89.0486 12.22C89.3286 11.9 89.6486 11.66 90.0086 11.5C90.3819 11.3267 90.7419 11.24 91.0886 11.24C91.6753 11.24 92.1886 11.38 92.6286 11.66C93.0686 11.94 93.3886 12.34 93.5886 12.86L91.4486 13.94L90.8286 12.98C90.6419 12.98 90.4153 13.0467 90.1486 13.18C89.8953 13.3133 89.6686 13.54 89.4686 13.86C89.2819 14.1667 89.1886 14.5867 89.1886 15.12V19.24L91.7286 19.84L91.7486 21H86.2086ZM98.4517 21.08C97.6651 21.08 96.9451 20.88 96.2917 20.48C95.6384 20.0667 95.1184 19.4867 94.7317 18.74C94.3584 17.9933 94.1717 17.12 94.1717 16.12C94.1717 15.1067 94.3651 14.24 94.7517 13.52C95.1384 12.7867 95.6584 12.2267 96.3117 11.84C96.9651 11.44 97.6784 11.24 98.4517 11.24C99.2517 11.24 99.9784 11.44 100.632 11.84C101.285 12.24 101.805 12.8067 102.192 13.54C102.578 14.26 102.772 15.12 102.772 16.12C102.772 17.12 102.578 17.9933 102.192 18.74C101.805 19.4867 101.285 20.0667 100.632 20.48C99.9784 20.88 99.2517 21.08 98.4517 21.08ZM98.4517 19.42C98.9184 19.42 99.3117 19.3 99.6317 19.06C99.9651 18.82 100.218 18.46 100.392 17.98C100.565 17.5 100.652 16.92 100.652 16.24C100.652 15.5333 100.565 14.9333 100.392 14.44C100.218 13.9467 99.9651 13.5667 99.6317 13.3C99.3117 13.0333 98.9184 12.9 98.4517 12.9C98.1184 12.9 97.8184 12.98 97.5517 13.14C97.2851 13.3 97.0517 13.5333 96.8517 13.84C96.6651 14.1333 96.5251 14.4867 96.4317 14.9C96.3384 15.3133 96.2917 15.7733 96.2917 16.28C96.2917 16.96 96.3784 17.54 96.5517 18.02C96.7251 18.4867 96.9717 18.84 97.2917 19.08C97.6251 19.3067 98.0117 19.42 98.4517 19.42ZM107.975 21.08C107.388 21.08 106.862 20.98 106.395 20.78C105.942 20.5667 105.582 20.2333 105.315 19.78C105.048 19.3267 104.915 18.74 104.915 18.02V12.94H103.875L103.675 11.72L106.335 11.22L106.975 11.92V17.68C106.975 18.0267 107.015 18.3133 107.095 18.54C107.188 18.7533 107.308 18.9267 107.455 19.06C107.615 19.1933 107.788 19.2867 107.975 19.34C108.162 19.38 108.348 19.4 108.535 19.4C108.895 19.4 109.242 19.3 109.575 19.1C109.908 18.8867 110.142 18.6533 110.275 18.4V12.9L109.315 12.94L109.095 11.72L111.695 11.22L112.315 11.92V19.1C112.315 19.2733 112.355 19.3933 112.435 19.46C112.515 19.5133 112.595 19.54 112.675 19.54C112.755 19.54 112.822 19.5333 112.875 19.52C112.928 19.5067 112.968 19.5 112.995 19.5L113.295 20.48C113.215 20.5733 113.048 20.7 112.795 20.86C112.555 21.0067 112.248 21.08 111.875 21.08C111.555 21.08 111.268 21.0067 111.015 20.86C110.762 20.7133 110.568 20.48 110.435 20.16C110.128 20.4667 109.748 20.7 109.295 20.86C108.855 21.0067 108.415 21.08 107.975 21.08ZM114.665 26.46L114.385 25.32L115.445 25.02V12.88L114.365 13L114.145 11.68L116.865 11.24L117.345 11.78C117.585 11.6333 117.872 11.5133 118.205 11.42C118.552 11.3133 118.938 11.26 119.365 11.26C120.205 11.26 120.912 11.46 121.485 11.86C122.072 12.26 122.518 12.82 122.825 13.54C123.145 14.26 123.305 15.0933 123.305 16.04C123.305 16.9067 123.192 17.66 122.965 18.3C122.738 18.9267 122.425 19.4467 122.025 19.86C121.625 20.2733 121.158 20.58 120.625 20.78C120.105 20.98 119.545 21.08 118.945 21.08C118.692 21.08 118.445 21.06 118.205 21.02C117.965 20.98 117.732 20.92 117.505 20.84V24.8L119.885 25.3L119.865 26.46H114.665ZM118.925 19.44C119.405 19.44 119.812 19.3067 120.145 19.04C120.478 18.7733 120.732 18.3933 120.905 17.9C121.092 17.4067 121.185 16.82 121.185 16.14C121.185 15.4867 121.098 14.92 120.925 14.44C120.765 13.9467 120.525 13.5667 120.205 13.3C119.885 13.0333 119.492 12.9 119.025 12.9C118.732 12.9 118.445 12.9533 118.165 13.06C117.885 13.1667 117.665 13.3067 117.505 13.48V19.06C117.678 19.18 117.892 19.2733 118.145 19.34C118.412 19.4067 118.672 19.44 118.925 19.44Z" fill="white"/>
<path d="M6 16C6 16.8667 6.175 17.6875 6.525 18.4625C6.875 19.2375 7.375 19.9167 8.025 20.5C8.00833 20.4167 8 20.3417 8 20.275V20.05C8 19.5167 8.1 19.0167 8.3 18.55C8.5 18.0833 8.79167 17.6583 9.175 17.275L12 14.5L14.825 17.275C15.2083 17.6583 15.5 18.0833 15.7 18.55C15.9 19.0167 16 19.5167 16 20.05V20.275C16 20.3417 15.9917 20.4167 15.975 20.5C16.625 19.9167 17.125 19.2375 17.475 18.4625C17.825 17.6875 18 16.8667 18 16C18 15.1667 17.8458 14.3792 17.5375 13.6375C17.2292 12.8958 16.7833 12.2333 16.2 11.65C15.8667 11.8667 15.5167 12.0292 15.15 12.1375C14.7833 12.2458 14.4083 12.3 14.025 12.3C12.9917 12.3 12.0958 11.9583 11.3375 11.275C10.5792 10.5917 10.1417 9.75 10.025 8.75C9.375 9.3 8.8 9.87083 8.3 10.4625C7.8 11.0542 7.37917 11.6542 7.0375 12.2625C6.69583 12.8708 6.4375 13.4917 6.2625 14.125C6.0875 14.7583 6 15.3833 6 16ZM12 17.3L10.575 18.7C10.3917 18.8833 10.25 19.0917 10.15 19.325C10.05 19.5583 10 19.8 10 20.05C10 20.5833 10.1958 21.0417 10.5875 21.425C10.9792 21.8083 11.45 22 12 22C12.55 22 13.0208 21.8083 13.4125 21.425C13.8042 21.0417 14 20.5833 14 20.05C14 19.7833 13.95 19.5375 13.85 19.3125C13.75 19.0875 13.6083 18.8833 13.425 18.7L12 17.3ZM12 5V8.3C12 8.86667 12.1958 9.34167 12.5875 9.725C12.9792 10.1083 13.4583 10.3 14.025 10.3C14.325 10.3 14.6042 10.2375 14.8625 10.1125C15.1208 9.9875 15.35 9.8 15.55 9.55L16 9C17.2333 9.7 18.2083 10.675 18.925 11.925C19.6417 13.175 20 14.5333 20 16C20 18.2333 19.225 20.125 17.675 21.675C16.125 23.225 14.2333 24 12 24C9.76667 24 7.875 23.225 6.325 21.675C4.775 20.125 4 18.2333 4 16C4 13.85 4.72083 11.8083 6.1625 9.875C7.60417 7.94167 9.55 6.31667 12 5Z" fill="#7B1202"/>
</svg>
